<svg xmlns="http://www.w3.org/2000/svg" viewBox="0 0 322.18 323.03"><defs><style>.cls-1,.cls-2{fill:#fec65e;}.cls-2,.cls-3{fill-rule:evenodd;}.cls-3{fill:#e2b707;}</style></defs><title>Logo</title><g id="Layer_2" data-name="Layer 2"><g id="Layer_1-2" data-name="Layer 1"><path class="cls-1" d="M194.13,323a13,13,0,0,1-5.81-1.44,9.71,9.71,0,0,1-5.58-9,25.45,25.45,0,0,0-.51-4.64c-.12.63-.26,1.26-.41,1.88a17.39,17.39,0,0,1-3.41,7.11,9.17,9.17,0,0,1-12.24,2.26c-3-1.73-5.32-4.27-7.53-6.72a21.7,21.7,0,0,1-5.16-8.6,11.75,11.75,0,0,1,1.66-10.5,14.72,14.72,0,0,1-1.48.24c-6.9.74-11.35-2.71-12.46-9.48a20.46,20.46,0,0,1,3-14.72c2.91-4.57,7.7-6.36,13.52-5a30.85,30.85,0,0,1,5.15,1.68l-.23-.22a37.66,37.66,0,0,1-3.66-3.9,9.12,9.12,0,0,1-1.88-8.5,8.78,8.78,0,0,1,4.45-5.26c7.09-3.83,14.49-3.86,21.85-.1,3.76,1.93,6.24,4.17,7.8,7.06a14.34,14.34,0,0,1,0,13.86,2.44,2.44,0,0,1-.14.28c1.12-1.3,2.28-2.59,3.49-3.82,4.24-4.32,9.63-4.55,14.69-.67a20.29,20.29,0,0,1,8.5,16.6,13.2,13.2,0,0,1-3.68,9.42,8.83,8.83,0,0,1-6.53,3h-.42c-2.17-.1-4.33-.41-6.43-.71l-1.54-.21.5.44c4.85,4.65,7.61,10,8.18,16,.41,4.15-1.38,7.82-5.18,10.6A14.41,14.41,0,0,1,194.13,323Zm-12.51-22.58,1.31,2.82c.13.27.18.37.22.48a27.74,27.74,0,0,1,1.62,8.79,7.69,7.69,0,0,0,4.45,7.24q6.09,3,12.25-1.48c3.23-2.37,4.7-5.32,4.36-8.77-.53-5.49-3.08-10.44-7.57-14.74-.25-.24-.52-.46-.8-.68l-.59-.43-1.05-.72-1.36-.95L191,289.48l5.51.93c.82.15,1.59.28,2.36.38l2.14.3c2,.29,4.16.6,6.24.69h.32a6.8,6.8,0,0,0,5.06-2.36,11.3,11.3,0,0,0,3.13-8,18.35,18.35,0,0,0-7.71-15c-4.24-3.25-8.48-3.12-12,.48-1.9,1.92-3.68,4.05-5.41,6.1-.63.76-1.27,1.52-1.91,2.27s-1.33,1.62-2,2.45l-1.44,1.83-1.58-1,.45-1.34c.18-.35.36-.71.57-1.05.52-.88,1-1.75,1.59-2.63,1.08-1.74,2.19-3.55,3.11-5.39a12.42,12.42,0,0,0,0-12c-1.36-2.51-3.56-4.48-7-6.22-6.75-3.46-13.46-3.43-20,.08a6.82,6.82,0,0,0-3.47,4.06,7.2,7.2,0,0,0,1.55,6.69,34.66,34.66,0,0,0,3.45,3.67c.58.56,1.16,1.12,1.71,1.69s1.31,1.37,2,2.06l.89,1-1.44,1.41-.63-.36a34.51,34.51,0,0,0-9.26-3.79c-5-1.13-8.9.28-11.37,4.16a18.49,18.49,0,0,0-2.71,13.3c.93,5.69,4.52,8.41,10.25,7.8a19.58,19.58,0,0,0,3.44-.8c.56-.16,1.12-.33,1.67-.47l5-1.27-4.16,3.07-.33.24c-3.59,2.47-4.93,6.46-3.65,10.95A19.44,19.44,0,0,0,160,311c2.31,2.57,4.39,4.87,7.13,6.45a7.17,7.17,0,0,0,9.67-1.79,15.39,15.39,0,0,0,3-6.31c.32-1.28.56-2.59.8-3.9l.36-1.95Z"/><path class="cls-2" d="M185.06,278.17l.08-.09c0-.2,0-.41,0-.61-.09.19-.19.37-.29.55A1.7,1.7,0,0,1,185.06,278.17Z"/><path class="cls-2" d="M292.23,2.11c-37,33.29-80.91,49.52-130.6,49.22S68.22,34.24,31.13,0L0,30.84A75.78,75.78,0,0,0,10.9,42.91C35.52,66.16,64.37,81.83,96.9,91a205.56,205.56,0,0,0,34.2,7c1.59.17,3.15.61,4.6.9,1.21,3.62,1.23,158.8.32,209.93h21a17.51,17.51,0,0,1-2.52-5.15c-1.3-4.53-.18-9.15,4.06-12.06l.29-.22a38.11,38.11,0,0,1-5.26,1.3c-6.29.66-10.32-2.37-11.35-8.64a19.54,19.54,0,0,1,2.86-14c2.73-4.29,7.07-5.81,12.45-4.59a35.28,35.28,0,0,1,9.52,3.89l.18-.19c-.72-.76-1.44-1.54-2.17-2.29a67.23,67.23,0,0,1-5.24-5.45,8.21,8.21,0,0,1-1.72-7.6,7.76,7.76,0,0,1,4-4.65C169,245.33,176,245.41,183,249c.73.38,1.44.78,2.13,1.22q-.12-54.64-.24-109.3c0-12,.09-24,.14-35.94V99.33c3.13-.54,5.79-1.09,8.47-1.46,35-4.85,67.52-16.38,96.74-36.54A185.06,185.06,0,0,0,319.3,36.47c1.22-1.29,2.27-2.72,2.88-3.45Z"/><path class="cls-2" d="M182,303.7c-.34,1.7-.63,3.39-1,5.05h2.38a26.54,26.54,0,0,0-1.18-4.62C182.16,304,182.08,303.86,182,303.7Z"/><path class="cls-3" d="M176.33,277.1s-.48-14-9.08-19.4C167.25,257.7,179.89,259.84,176.33,277.1Z"/><path class="cls-3" d="M178.69,278.05s6.83-12.26,2.25-21.29C180.94,256.76,190.65,265.11,178.69,278.05Z"/><path class="cls-3" d="M172.11,283.66S158.87,279,150.74,285C150.74,285,157.34,274,172.11,283.66Z"/><path class="cls-3" d="M172.74,281.19s-10.79-9-20.51-6.14C152.23,275.05,162.23,267.05,172.74,281.19Z"/><path class="cls-3" d="M176.8,290.93s-7.3,12-3.07,21.19C173.73,312.12,164.35,303.4,176.8,290.93Z"/><path class="cls-3" d="M174.51,289.8s-11,8.71-10.23,18.81C164.28,308.61,158.5,297.18,174.51,289.8Z"/><path class="cls-3" d="M188,281.85s13.78-2.7,17.72-12C205.72,269.82,205.61,282.63,188,281.85Z"/><path class="cls-3" d="M188.71,284.29s13.86,2.26,20.79-5.12C209.5,279.17,205,291.14,188.71,284.29Z"/><path class="cls-3" d="M191.81,312.12s0-14-8.44-19.68C183.37,292.44,195.93,295,191.81,312.12Z"/><path class="cls-3" d="M199.93,308.77s-3.36-13.62-12.88-17.11C187.05,291.66,199.86,291.15,199.93,308.77Z"/></g></g></svg>