<svg xmlns="http://www.w3.org/2000/svg" viewBox="0 0 191.51 207.45"><defs><style>.cls-1,.cls-3{fill:#fec65e;}.cls-2{fill:none;stroke:#fec65e;stroke-miterlimit:10;}.cls-2,.cls-3,.cls-4{fill-rule:evenodd;}.cls-4{fill:#e2b707;}</style></defs><title>logo-w</title><g id="Layer_2" data-name="Layer 2"><g id="Layer_1-2" data-name="Layer 1"><path class="cls-1" d="M16.11,165.77v4.85h-.48a7.44,7.44,0,0,0-.94-2.41A3.55,3.55,0,0,0,13.28,167a4.51,4.51,0,0,0-1.76-.24H10.18v13.83a5.72,5.72,0,0,0,.15,1.72,1.38,1.38,0,0,0,.6.6,2.42,2.42,0,0,0,1.21.26h.59v.49H3.35v-.49h.59a2.45,2.45,0,0,0,1.26-.28,1.22,1.22,0,0,0,.54-.63,5.44,5.44,0,0,0,.14-1.67V166.8H4.59a3.76,3.76,0,0,0-2.63.77A5.08,5.08,0,0,0,.5,170.62H0v-4.85Z"/><path class="cls-1" d="M46,183.21v.49H36.58v-.49h.6a2.45,2.45,0,0,0,1.26-.28,1.19,1.19,0,0,0,.52-.63,5.31,5.31,0,0,0,.15-1.67V168.84a5.72,5.72,0,0,0-.15-1.72,1.28,1.28,0,0,0-.58-.6,2.32,2.32,0,0,0-1.2-.26h-.6v-.49H46v.49h-.6a2.44,2.44,0,0,0-1.25.28,1.22,1.22,0,0,0-.54.63,5.31,5.31,0,0,0-.15,1.67v11.79a5.72,5.72,0,0,0,.15,1.72,1.33,1.33,0,0,0,.6.6,2.36,2.36,0,0,0,1.19.26Z"/><path class="cls-1" d="M84.79,165.77v.49a2.7,2.7,0,0,0-1.36.51,13.68,13.68,0,0,0-2.09,3l-3.89,6.49v4.34a5.76,5.76,0,0,0,.15,1.73,1.33,1.33,0,0,0,.57.59,2.25,2.25,0,0,0,1.15.26h1v.49H70.26v-.49h.94a2.4,2.4,0,0,0,1.26-.28,1.32,1.32,0,0,0,.54-.63,5.8,5.8,0,0,0,.14-1.67V177l-4.22-7.68a10.88,10.88,0,0,0-1.77-2.68,2.21,2.21,0,0,0-1.37-.41v-.49h8.59v.49H74a1.93,1.93,0,0,0-1.09.22.61.61,0,0,0-.31.48,7.85,7.85,0,0,0,1.06,2.39l3.23,5.94,3.23-5.41a7.17,7.17,0,0,0,1.2-2.63.71.71,0,0,0-.34-.6,3.23,3.23,0,0,0-1.65-.39v-.49Z"/><path class="cls-1" d="M112.83,178.59H106.5l-.75,1.75a3.85,3.85,0,0,0-.38,1.44,1.21,1.21,0,0,0,.61,1.11,5.16,5.16,0,0,0,1.76.32v.49h-6v-.49a2.64,2.64,0,0,0,1.58-.8,10.62,10.62,0,0,0,1.54-2.7l6.41-14.31h.25L118,180.1a8.81,8.81,0,0,0,1.52,2.63,2.07,2.07,0,0,0,1.27.48v.49h-8.67v-.49h.35a2.75,2.75,0,0,0,1.47-.29.72.72,0,0,0,.29-.61,1.73,1.73,0,0,0-.08-.49q0-.12-.39-1Zm-.45-1-2.67-6.18L107,177.62Z"/><path class="cls-1" d="M7.74,204.33a2.78,2.78,0,0,1-1,2.27,4,4,0,0,1-2.56.85,3.79,3.79,0,0,1-2.36-.79,4,4,0,0,1-1.42-2.14L1.69,204a3.4,3.4,0,0,0,.37.87,2.69,2.69,0,0,0,.57.67,2.4,2.4,0,0,0,.71.44,2.15,2.15,0,0,0,.83.16,2.39,2.39,0,0,0,1.56-.49,1.59,1.59,0,0,0,.6-1.3,1.57,1.57,0,0,0-.5-1.16,4.82,4.82,0,0,0-1.75-.91c-.86-.31-1.4-.52-1.61-.63a2.77,2.77,0,0,1-1.72-2.57,2.64,2.64,0,0,1,1-2,3.49,3.49,0,0,1,2.37-.84,3.67,3.67,0,0,1,2.14.63,3,3,0,0,1,1.2,1.55l-1.29.54a1.92,1.92,0,0,0-.72-1,2.16,2.16,0,0,0-1.3-.4,2.06,2.06,0,0,0-1.37.46A1.32,1.32,0,0,0,2.61,200a7.54,7.54,0,0,0,2.09,1A5.31,5.31,0,0,1,7,202.35,2.89,2.89,0,0,1,7.74,204.33Z"/><path class="cls-1" d="M13.81,202.84v4.37H12.43V196.42h3.68a3.35,3.35,0,0,1,2.38.93,3.13,3.13,0,0,1,0,4.57,3.35,3.35,0,0,1-2.38.92Zm0-5.1v3.77h2.32a1.86,1.86,0,0,0,1.38-.56,1.85,1.85,0,0,0,0-2.63,1.84,1.84,0,0,0-1.38-.58Z"/><path class="cls-1" d="M23.52,207.21H22l4.07-10.79h1.56l4.07,10.79H30.15l-1-2.93H24.57Zm3.28-9.09L25,203h3.58l-1.76-4.87Z"/><path class="cls-1" d="M49,205.34l1,1.32-1,.79-.74-1a3.69,3.69,0,0,1-2.5,1,3.88,3.88,0,0,1-2.79-1.1,3.63,3.63,0,0,1-1.14-2.71,3.46,3.46,0,0,1,.5-1.81,4.05,4.05,0,0,1,1.36-1.37,3.1,3.1,0,0,1-.78-1.8,2.33,2.33,0,0,1,.77-1.75,2.55,2.55,0,0,1,1.84-.73,2.39,2.39,0,0,1,1.49.48,2.81,2.81,0,0,1,.92,1.34l-1.19.63c-.28-.75-.69-1.13-1.22-1.13a1.24,1.24,0,0,0-.87.32,1.08,1.08,0,0,0-.34.84,1.61,1.61,0,0,0,.35,1l3.57,4.67,1-1.61,1.09.66ZM43,203.64a2.41,2.41,0,0,0,.77,1.81,2.63,2.63,0,0,0,1.9.73,2.24,2.24,0,0,0,1.73-.72l-3-4a2.71,2.71,0,0,0-1,.93A2.25,2.25,0,0,0,43,203.64Z"/><path class="cls-1" d="M62.32,207.21H60.94V196.42h3.67a3.39,3.39,0,0,1,2.39.92,3.1,3.1,0,0,1,.26,4.27,3.23,3.23,0,0,1-1.85,1.11l0,0,3,4.38v.07H66.77l-2.91-4.37H62.32Zm0-9.47v3.8h2.23A2,2,0,0,0,66,201a1.79,1.79,0,0,0,.58-1.36,1.91,1.91,0,0,0-1.93-1.89Z"/><path class="cls-1" d="M79,196.42v1.32H74v3.42h4.43v1.3H74v3.42H79v1.33h-6.3V196.42Z"/><path class="cls-1" d="M85.22,202.58v4.63H83.84V196.42h6.29v1.32H85.22v3.54h4.43v1.3Z"/><path class="cls-1" d="M100.77,207.21H94.71V196.42H96.1v9.46h4.67Z"/><path class="cls-1" d="M111.53,196.42v1.32h-4.91v3.42H111v1.3h-4.42v3.42h4.91v1.33h-6.3V196.42Z"/><path class="cls-1" d="M117.19,207.21h-1.63l3.62-5.58-3.41-5.21h1.66l2.62,4.13h.06l2.62-4.13h1.66l-3.4,5.21,3.61,5.58H123l-2.87-4.42h-.06Z"/><path class="cls-1" d="M139,201.81a5.49,5.49,0,0,1-1.59,4,5.6,5.6,0,0,1-7.9,0,5.81,5.81,0,0,1,0-8,5.59,5.59,0,0,1,7.9,0A5.46,5.46,0,0,1,139,201.81Zm-9.67,0a4.24,4.24,0,0,0,1.18,3.09,4.16,4.16,0,0,0,5.89,0,4.61,4.61,0,0,0,0-6.18,4.16,4.16,0,0,0-5.89,0A4.27,4.27,0,0,0,129.3,201.81Z"/><path class="cls-1" d="M149.68,207.21h-6.05V196.42H145v9.46h4.67Z"/><path class="cls-1" d="M164.48,201.81a5.46,5.46,0,0,1-1.6,4,5.59,5.59,0,0,1-7.89,0,5.81,5.81,0,0,1,0-8,5.58,5.58,0,0,1,7.89,0A5.43,5.43,0,0,1,164.48,201.81Zm-9.67,0A4.27,4.27,0,0,0,156,204.9a4,4,0,0,0,3,1.22,3.91,3.91,0,0,0,2.93-1.22,4.61,4.61,0,0,0,0-6.18,3.91,3.91,0,0,0-2.93-1.22,4,4,0,0,0-3,1.22A4.31,4.31,0,0,0,154.81,201.81Z"/><path class="cls-1" d="M179.36,202.25a4.84,4.84,0,0,1-1.34,3.6,5.2,5.2,0,0,1-4,1.6,5.64,5.64,0,1,1,0-11.27,6.08,6.08,0,0,1,2.25.42,4.5,4.5,0,0,1,1.73,1.19l-1,1a3.41,3.41,0,0,0-1.28-.94,4.41,4.41,0,0,0-1.7-.34,4.07,4.07,0,0,0-3,1.22,4.55,4.55,0,0,0,0,6.18,4.07,4.07,0,0,0,3,1.22,4,4,0,0,0,2.68-.9,3.59,3.59,0,0,0,1.24-2.49h-3.92v-1.3h5.23A4.78,4.78,0,0,1,179.36,202.25Z"/><path class="cls-1" d="M187.87,202.19v5h-1.38v-5l-3.63-5.77h1.63l2.66,4.38h.06l2.61-4.38h1.63Z"/><path class="cls-1" d="M141.16,176.65a22.52,22.52,0,0,0,2.53-6.56h-2.2v-1.24h2.26V165H145v3.83h2v1.24h-2v1.77l.59-.39c.68.87,1.28,1.71,1.82,2.54l-1.06.76q-.58-1.08-1.35-2.22v10.67h-1.25v-9.69a18.09,18.09,0,0,1-2,4.75A11,11,0,0,0,141.16,176.65Zm6.76-1.79a14.81,14.81,0,0,0,1.11,3,14.28,14.28,0,0,0,.95-4.57h-2.63V172l2.05-4.16h-2.55v-1.26h4v1.26L148.77,172h2.52v1.31a18.27,18.27,0,0,1-1.39,5.88c1.11,1.32,3,2,5.55,2a37.06,37.06,0,0,0,4.22-.09,14.32,14.32,0,0,0-.54,1.52l-3.81,0q-4.08-.08-6.07-2.17a11.18,11.18,0,0,1-2.42,2.91,8.3,8.3,0,0,0-1-1.11,11.87,11.87,0,0,0,2.48-3,15.17,15.17,0,0,1-1.65-4Zm3.44,2.68h3.3v-4.48H152v-1.25h2.7v-4.2l-2.76.13a12,12,0,0,0-.24-1.3q3,0,6.92-.44l.25,1.3-2.85.24v4.27h2.63v1.25H156v4.48h3.22v1.29h-7.84Z"/><path class="cls-1" d="M173.35,179.57a20.43,20.43,0,0,0,3.86-5.66H174v-1.22l.67-4h1.28l-.65,4h2.37v-5.29H174v-1.26h6.82v1.26h-1.89v5.29h1.82v1.25h-1.82v7.18c0,1.28-.58,1.92-1.73,1.92h-1.69c-.06-.45-.14-.94-.24-1.46a11.4,11.4,0,0,0,1.46.11c.63,0,.95-.29.95-.87v-5.45a18.41,18.41,0,0,1-3.44,5.34A7.09,7.09,0,0,0,173.35,179.57Zm6.3-8.73a19.36,19.36,0,0,0,3.83-5.93l1.29.48c-.48,1-1,1.93-1.52,2.83h3.86a27.19,27.19,0,0,0-1.54-2.65l1.05-.62c.61.87,1.16,1.73,1.67,2.59l-1.14.68h4.32v1.26h-3.79v2.88h3.55v1.26h-3.55v2.9h3.53v1.26h-3.53v2.9h3.83v1.26h-8.6v1.13h-1.3v-12.4c-.35.47-.71.93-1.09,1.38A8.56,8.56,0,0,0,179.65,170.84Zm3.26,1.52h3.47v-2.88h-3.47Zm0,4.16h3.47v-2.9h-3.47Zm0,4.16h3.47v-2.9h-3.47Z"/><path class="cls-2" d="M118.21,131.22c-2.13-1.63-4.52-1.83-6.6.29-1.29,1.3-2.44,2.75-3.64,4.15-.49.58-.94,1.18-1.41,1.77l-.11-.07c.12-.23.23-.46.36-.68.79-1.33,1.66-2.62,2.34-4a6.6,6.6,0,0,0,0-6.39,8,8,0,0,0-3.64-3.28,10.53,10.53,0,0,0-10.33,0,3.85,3.85,0,0,0-2,2.3,4,4,0,0,0,.85,3.75,32.89,32.89,0,0,0,2.59,2.7c.36.37.71.75,1.07,1.13l-.09.09a17.49,17.49,0,0,0-4.7-1.92c-2.66-.6-4.8.15-6.16,2.27a9.66,9.66,0,0,0-1.41,6.92c.51,3.1,2.5,4.6,5.61,4.27a18.27,18.27,0,0,0,2.6-.64l-.14.11a5.16,5.16,0,0,0-2,6,10.22,10.22,0,0,0,2.38,4,15.42,15.42,0,0,0,3.65,3.28,4,4,0,0,0,5.41-1,8,8,0,0,0,1.59-3.31c.23-1,.39-1.93.58-2.91l.1.21a12.87,12.87,0,0,1,.76,4.17,4.31,4.31,0,0,0,2.48,4,6,6,0,0,0,6.57-.78,5.15,5.15,0,0,0,2.36-4.78,12,12,0,0,0-3.89-7.6c-.14-.13-.29-.25-.44-.37h0c0-.19-.13-.22-.31-.22l-1.19-.82c.66.11,1.24.22,1.82.3,1.39.18,2.78.42,4.18.49a3.86,3.86,0,0,0,3-1.32,6,6,0,0,0,1.68-4.31A9.53,9.53,0,0,0,118.21,131.22Z"/><path class="cls-3" d="M106.56,137.43l0,0v-.3c0,.09-.09.18-.14.27Z"/><path class="cls-3" d="M159.51,1c-18.28,16.45-40,24.47-64.53,24.32S48.83,16.92,30.5,0L15.13,15.24a37.37,37.37,0,0,0,5.38,6A100.2,100.2,0,0,0,63,44.94a101.29,101.29,0,0,0,16.9,3.44c.78.08,1.56.3,2.27.44.6,1.79.61,78.46.16,103.72H92.68A8.7,8.7,0,0,1,91.44,150a5.16,5.16,0,0,1,2-6l.14-.11a18.27,18.27,0,0,1-2.6.64c-3.11.33-5.1-1.17-5.61-4.27a9.66,9.66,0,0,1,1.41-6.92c1.36-2.12,3.5-2.87,6.16-2.27a17.49,17.49,0,0,1,4.7,1.92l.09-.09c-.36-.38-.71-.76-1.07-1.13a32.89,32.89,0,0,1-2.59-2.7,4,4,0,0,1-.85-3.75,3.85,3.85,0,0,1,2-2.3,10.53,10.53,0,0,1,10.33,0,12.18,12.18,0,0,1,1.06.61q-.06-27-.12-54c0-5.91,0-11.83.07-17.75V49.08c1.55-.27,2.86-.54,4.18-.72,17.3-2.4,33.36-8.1,47.8-18.06A91.59,91.59,0,0,0,172.88,18c.6-.64,1.12-1.35,1.42-1.71Z"/><path class="cls-3" d="M105.05,150.05c-.17.84-.31,1.67-.49,2.49h1.17a12.3,12.3,0,0,0-.58-2.28Z"/><path class="cls-4" d="M102.24,136.9s-.24-6.92-4.48-9.58C97.76,127.32,104,128.38,102.24,136.9Z"/><path class="cls-4" d="M103.41,137.38s3.38-6.06,1.11-10.53C104.52,126.85,109.32,131,103.41,137.38Z"/><path class="cls-4" d="M100.16,140.15s-6.54-2.31-10.56.67C89.6,140.82,92.86,135.39,100.16,140.15Z"/><path class="cls-4" d="M100.47,138.93s-5.33-4.44-10.13-3C90.34,135.89,95.28,131.94,100.47,138.93Z"/><path class="cls-4" d="M102.48,143.74s-3.61,5.92-1.52,10.47C101,154.21,96.32,149.9,102.48,143.74Z"/><path class="cls-4" d="M101.34,143.18s-5.43,4.3-5,9.3C96.29,152.48,93.44,146.82,101.34,143.18Z"/><path class="cls-4" d="M108,139.25s6.81-1.33,8.75-5.94C116.76,133.31,116.71,139.64,108,139.25Z"/><path class="cls-4" d="M108.36,140.46s6.85,1.11,10.27-2.53C118.63,137.93,116.38,143.84,108.36,140.46Z"/><path class="cls-4" d="M109.89,154.21s0-6.94-4.17-9.73C105.72,144.48,111.93,145.74,109.89,154.21Z"/><path class="cls-4" d="M113.9,152.55s-1.66-6.73-6.36-8.45C107.54,144.1,113.87,143.85,113.9,152.55Z"/></g></g></svg>