<?xml version="1.0" standalone="no"?><!DOCTYPE svg PUBLIC "-//W3C//DTD SVG 1.1//EN" "http://www.w3.org/Graphics/SVG/1.1/DTD/svg11.dtd"><svg class="icon" height="512" viewBox="0 0 1024 1024" version="1.1" xmlns="http://www.w3.org/2000/svg"><path d="M640 424.512H537.6c-4.288 0-5.696 1.408-5.696 5.696v111.68c0 5.696 1.408 6.4 6.4 6.4h99.584c6.4 0 8.512-2.112 8.512-7.808V430.976c-0.704-5.76-2.112-6.464-6.4-6.464z m-9.216 42.688h-2.816c-9.984 0-9.216-1.408-9.216 9.216v46.912c0 12.8-4.288 17.792-17.088 19.2-6.4 0.704-13.504 0-19.904 0-2.816 0-4.288-1.408-4.288-4.288v-1.408c0-11.392 0-11.392 10.688-11.392 11.392-0.704 12.8-2.112 12.8-12.8v-35.584c-14.976 22.848-34.944 37.76-56.96 52.032v-19.2c0-3.584 2.816-4.288 4.992-5.696 14.208-9.984 27.008-20.608 36.992-36.288H544c-4.992 0-7.104-0.704-7.104-6.4 0.704-11.392 0-11.392 11.392-11.392H595.2c4.992 0 6.4-1.408 5.696-5.696v-4.992c0-9.984-2.112-9.216 9.216-9.216 6.4 0 8.512 1.408 7.808 7.808-0.704 2.816 0 5.696 0 8.512 0 2.816 0.704 4.288 4.288 4.288 2.816 0 5.696 0.704 8.512 0 7.808-1.408 8.512 2.112 8.512 8.512 0.768 6.464-1.344 9.28-8.448 7.872zM486.4 230.4c-141.504 0-256 114.496-256 256s114.496 256 256 256 256-114.496 256-256-114.496-256-256-256zM310.016 487.104c0.768-11.392-1.408-9.92 9.984-9.92h56.896c4.288 0 7.104 0.704 7.104-5.696 0-6.4-2.816-5.696-7.808-5.696h-47.616c-4.992 0-7.104-1.408-6.4-6.4V454.4c-0.768-4.288 0.64-6.4 5.632-5.696h49.088c4.288 0 6.4 0 6.4-5.696 0-4.992-2.112-6.4-6.4-5.696h-54.784c-10.688 0-8.512 1.408-9.216-9.216-0.704-5.696 1.408-7.808 7.808-7.104 10.688 0.704 21.312 0 33.408 0-4.928-7.104-8.512-12.096-11.328-19.904h17.088c1.408 0 2.816 0.704 3.584 2.112 0.64 1.408 1.344 2.112 1.344 2.816 6.4 9.984 13.504 17.792 27.008 14.976h3.584c12.8 2.816 20.608-4.288 25.6-13.504 2.816-4.992 6.4-7.104 11.392-6.4 3.584 0.704 7.104 0 11.392 0-2.112 7.808-6.4 12.8-11.392 19.904h34.112c4.992 0 6.4 1.408 6.4 6.4 0 10.688 0 10.688-10.688 10.688h-54.016c-4.992 0-5.696 1.408-5.696 6.4 0 4.288 1.408 5.696 5.696 5.696h49.088c4.992 0 7.808 1.408 6.4 6.4v2.816c1.408 7.104-2.176 7.808-7.872 7.808-14.912-0.704-29.888 0-44.8 0-3.584 0-8.512-2.112-8.512 5.696 0 7.104 4.288 5.696 8.512 5.696h58.304c4.992 0 7.104 0.704 7.104 6.4-0.704 10.688 0 10.688-10.688 10.688H317.12c-5.632-1.472-7.104-2.88-7.104-8.576z m155.776 83.2c-29.184-2.816-53.376-13.504-71.808-36.992-19.968 27.776-49.088 33.472-79.68 37.696-4.288 0.704-5.696-0.704-4.992-4.992 0-4.288-1.408-9.216 0.704-12.8 2.112-3.584 7.104-1.408 11.392-2.112a172.16 172.16 0 0 0 32.704-9.216 49.92 49.92 0 0 0 20.608-17.792H315.712c-3.584 0-4.992-1.408-4.992-4.992-0.704-12.8-0.704-12.8 12.096-12.8h51.904c4.992 0 7.808-0.704 7.808-6.4 0-3.584 1.408-4.992 4.992-4.288h7.104c4.992-0.704 9.216 0 7.808 7.104-0.64 4.992 3.584 3.584 5.76 3.584h59.712c5.696 0 8.512 1.408 7.104 7.104V518.4c0.704 4.288-1.408 5.696-5.696 5.696H409.536c11.392 16.384 27.712 21.312 44.8 25.6 5.696 1.408 11.392 2.112 17.088 2.816 4.288 0 5.696 2.112 5.696 5.696 0.768 12.8 0.768 13.504-11.328 12.096z m198.4-15.616c0 10.688-2.816 13.504-13.504 13.504H519.872c-5.696 0-6.4-1.408-6.4-6.4V487.104 413.12c0-4.992 0.704-7.104 6.4-7.104h137.984c5.696 0 6.4 2.112 6.4 7.104l-0.064 141.568z" /></svg>