<svg xmlns="http://www.w3.org/2000/svg" viewBox="0 0 555.08 187.03"><defs><style>.cls-1{fill:#e5c9bd;}</style></defs><title>logo</title><g id="Layer_2" data-name="Layer 2"><g id="Layer_2-2" data-name="Layer 2"><path class="cls-1" d="M77.43,135.84,44.87,60.89H41.62L12.88,137.17c-2.33,5.4-6.11,8.24-11.31,8.47L0,145.77v1.45H27.43v-1.45l-2.05-.13c-3.85-.16-6.35-1.08-7.51-2.8s-1.1-4.37.16-8.1l6.26-17.32H55.07l7.7,18.42q2.07,5.07.78,7.31c-.84,1.49-2.9,2.33-6.19,2.49l-3.13.13v1.45H90.08v-1.45a11.61,11.61,0,0,1-7.27-2.06q-2.7-2.06-5.38-7.87M25.61,113.93l13-35.62,14.91,35.62Z"/><path class="cls-1" d="M302.3,145.77l-1.46-.13c-2.87-.16-4.94-1-6.23-2.54s-1.93-3.94-1.93-7.26V74.2c0-3.32.65-5.74,1.93-7.27s3.36-2.39,6.23-2.54l1.46-.12V62.8H269.71v1.47l1.45.12c2.89.15,5,1,6.25,2.54s1.93,3.95,1.93,7.27v61.64c0,3.32-.64,5.73-1.93,7.26s-3.36,2.38-6.25,2.54l-1.45.13v1.45H302.3Z"/><path class="cls-1" d="M408.6,64.27l1.93.12c3.52.15,5.63,1.06,6.31,2.72s-.08,4.3-2.24,7.92l-18.89,29.19L377.56,74.08c-1.92-3.24-2.68-5.65-2.21-7.22s2.17-2.42,5.21-2.59l1.57-.13V62.69H348.35v1.45l1,.13a11.07,11.07,0,0,1,6.11,2.54,27.45,27.45,0,0,1,5.9,7.27l22.38,37,.12,25.81c-.18,2.81-.88,4.91-2.13,6.22s-3.16,2.09-5.82,2.26l-1.44.13-.36,1.68h32.58v-1.45l-1.44-.13q-4.32-.24-6.25-2.54c-1.29-1.53-1.92-3.94-1.92-7.26V107L418.94,74.2A29.16,29.16,0,0,1,425.56,67a13.09,13.09,0,0,1,7.09-2.6l1.33-.12V62.8H408.6Z"/><path class="cls-1" d="M481.26,142.84c-1.16-1.67-1.11-4.37.18-8.1l6.26-17.32h30.76l7.72,18.42c1.35,3.38,1.6,5.82.77,7.31s-2.9,2.33-6.18,2.49l-3.13.13v1.45h35.84v-1.45a11.76,11.76,0,0,1-7.3-2.06q-2.68-2.06-5.33-7.87L508.26,60.89H505l-28.76,76.28c-2.33,5.4-6.11,8.25-11.3,8.47l-1.57.13v1.45h27.41v-1.45l-2-.13c-3.88-.16-6.36-1.09-7.53-2.8M502,78.31l14.9,35.62H489Z"/><path class="cls-1" d="M176.22,33.34c-3.75,80.46,31.91,70.8,31.91,70.8-30.84-3.2-31.91-70.8-31.91-70.8"/><path class="cls-1" d="M193.36,147.22c0-28,13.53-41,13.53-41-16,7.07-13.53,41.05-13.53,41.05"/><path class="cls-1" d="M204,101.55c-17.11-11.3-21.5-61.8-21.5-61.8,3.33,55.58,21.5,61.8,21.5,61.8"/><path class="cls-1" d="M203,99.21c-11.62-23.47-9.82-62.11-9.82-62.11C187.8,71.48,203,99.21,203,99.21"/><path class="cls-1" d="M204.89,137.71c-3-17.1,3.26-27.16,3.26-27.16-9.43,11.74-3.26,27.16-3.26,27.16"/><path class="cls-1" d="M142,104.14s35.67,9.66,31.93-70.8c0,0-1,67.6-31.93,70.8"/><path class="cls-1" d="M143.25,106.17s13.53,13.07,13.53,41.05c0,0,2.42-34-13.53-41"/><path class="cls-1" d="M167.68,39.75s-4.39,50.5-21.51,61.8c0,0,18.18-6.22,21.51-61.8"/><path class="cls-1" d="M156.94,37.1s1.79,38.64-9.81,62.11c0,0,15.24-27.73,9.81-62.11"/><path class="cls-1" d="M145.28,137.71s6.16-15.42-3.29-27.16c0,0,6.33,10.06,3.29,27.16"/><path class="cls-1" d="M260.39,9.85c-23.55,5.51-53.33,8.83-85.82,8.83-33.09,0-63.4-3.44-87.16-9.16L82.77,21.36A309.58,309.58,0,0,0,130,29.47V147.23H133V29.75l2.09.2V147.23h6V30.46c10.72.75,21.89,1.18,33.4,1.18,11.87,0,23.4-.44,34.38-1.28V147.23H215V29.87c.56-.05,1.12-.12,1.68-.16V147.23h3V29.42a317.25,317.25,0,0,0,45.34-7.74Z"/><path class="cls-1" d="M9.72,172.05v5H9.34a6.51,6.51,0,0,0-.67-2.26,3.5,3.5,0,0,0-1.4-1.35,4,4,0,0,0-1.86-.49,2.55,2.55,0,0,0-1.8.67,2.05,2.05,0,0,0-.73,1.54,1.67,1.67,0,0,0,.48,1.17,11.42,11.42,0,0,0,3.07,2.12,20.89,20.89,0,0,1,2.73,1.64,4.53,4.53,0,0,1,1.12,1.36,3.61,3.61,0,0,1,.4,1.64,3.75,3.75,0,0,1-1.25,2.81A4.58,4.58,0,0,1,6.2,187,6.13,6.13,0,0,1,5,186.94a8.58,8.58,0,0,1-1.37-.39,5.69,5.69,0,0,0-1.28-.31.54.54,0,0,0-.41.14,1.2,1.2,0,0,0-.23.65H1.37v-4.91h.38a7.17,7.17,0,0,0,.74,2.32,3.55,3.55,0,0,0,1.4,1.27,4.29,4.29,0,0,0,2.08.5,3,3,0,0,0,2.08-.7,2.17,2.17,0,0,0,.76-1.64,2.24,2.24,0,0,0-.3-1.06,3.28,3.28,0,0,0-.89-1,25.14,25.14,0,0,0-2.24-1.36,24.44,24.44,0,0,1-2.59-1.64,5,5,0,0,1-1.17-1.34,3.57,3.57,0,0,1-.39-1.64,3.54,3.54,0,0,1,1.17-2.65,4.2,4.2,0,0,1,3-1.13,6.07,6.07,0,0,1,2.41.57,2.83,2.83,0,0,0,.84.27.64.64,0,0,0,.43-.17,1.37,1.37,0,0,0,.28-.67Z"/><path class="cls-1" d="M42,180v4.18a2.84,2.84,0,0,0,.29,1.68,1.53,1.53,0,0,0,1.2.47H44v.4h-6.1v-.4h.53a1.49,1.49,0,0,0,1.32-.61,3.7,3.7,0,0,0,.22-1.54v-9.25a2.73,2.73,0,0,0-.32-1.68,1.52,1.52,0,0,0-1.22-.48h-.53v-.39h5.21a9.94,9.94,0,0,1,3,.39A4.29,4.29,0,0,1,48,174.12a3.45,3.45,0,0,1,.75,2.23,3.68,3.68,0,0,1-1.14,2.84,4.42,4.42,0,0,1-3.23,1.11,7.45,7.45,0,0,1-1.13-.07c-.39-.06-.8-.13-1.26-.23m0-.59c.37.06.68.12,1,.15s.53.05.72.05a2.52,2.52,0,0,0,1.9-.84,3.19,3.19,0,0,0,.79-2.21,3.86,3.86,0,0,0-.4-1.73,2.64,2.64,0,0,0-1-1.19,3.14,3.14,0,0,0-1.58-.39,5.79,5.79,0,0,0-1.37.21Z"/><path class="cls-1" d="M83.16,181.91H77.65l-1,2.27a3.32,3.32,0,0,0-.36,1.25.75.75,0,0,0,.32.58,3,3,0,0,0,1.33.32v.38H73.5v-.38a2.2,2.2,0,0,0,1.14-.43,6,6,0,0,0,1.21-2.05l5-11.8h.36l5,11.91a5.42,5.42,0,0,0,1.09,1.89,2.28,2.28,0,0,0,1.33.48v.38H83v-.38a2.27,2.27,0,0,0,1.16-.3.68.68,0,0,0,.28-.58A4.14,4.14,0,0,0,84,184Zm-.29-.77-2.42-5.79L78,181.14Z"/><path class="cls-1" d="M153.21,181.91H147.7l-1,2.27a3.85,3.85,0,0,0-.34,1.25.73.73,0,0,0,.3.58,3.09,3.09,0,0,0,1.34.32v.38h-4.48v-.38a2.29,2.29,0,0,0,1.15-.43,5.77,5.77,0,0,0,1.18-2.05l5-11.8h.35l5,11.91a5.14,5.14,0,0,0,1.08,1.89,2.35,2.35,0,0,0,1.35.48v.38H153v-.38a2.16,2.16,0,0,0,1.15-.3.69.69,0,0,0,.29-.58,4.07,4.07,0,0,0-.41-1.49Zm-.31-.77-2.4-5.79L148,181.14Z"/><path class="cls-1" d="M184.37,172.4h3.85l8.7,10.75v-8.28a2.9,2.9,0,0,0-.28-1.63,1.59,1.59,0,0,0-1.24-.47h-.5v-.37h5v.37h-.51a1.51,1.51,0,0,0-1.29.55,3.48,3.48,0,0,0-.23,1.55v12.07h-.36l-9.38-11.53v8.81a3,3,0,0,0,.28,1.67,1.61,1.61,0,0,0,1.23.44h.5v.38h-5v-.38h.49a1.49,1.49,0,0,0,1.29-.55,3.2,3.2,0,0,0,.23-1.56v-10a9.17,9.17,0,0,0-.93-1,4.18,4.18,0,0,0-1-.41,3.37,3.37,0,0,0-.92-.11Z"/><path class="cls-1" d="M226.3,186.73v-.4h.53a1.35,1.35,0,0,0,1.27-.59,3,3,0,0,0,.24-1.57v-9.24a2.85,2.85,0,0,0-.31-1.68,1.49,1.49,0,0,0-1.2-.48h-.53v-.37h5.77a12.57,12.57,0,0,1,4.87.72,5.68,5.68,0,0,1,2.68,2.44,7.47,7.47,0,0,1,1,3.9,7.23,7.23,0,0,1-1.8,5c-1.36,1.49-3.42,2.26-6.17,2.26Zm4-1.06a9.64,9.64,0,0,0,2.25.31,5.19,5.19,0,0,0,4-1.73,7.56,7.56,0,0,0,0-9.35,5.34,5.34,0,0,0-4.09-1.7,8.79,8.79,0,0,0-2.18.3Z"/><path class="cls-1" d="M307.13,186.73l-5.5-12v9.54a3.11,3.11,0,0,0,.29,1.67,1.63,1.63,0,0,0,1.2.44h.54v.4h-5v-.4h.49a1.49,1.49,0,0,0,1.29-.55,3,3,0,0,0,.23-1.56v-9.35a3.34,3.34,0,0,0-.19-1.37A1.33,1.33,0,0,0,300,173a2.78,2.78,0,0,0-1.26-.22v-.37h4l5.13,11.2L313,172.4h4v.37h-.49a1.56,1.56,0,0,0-1.3.55,3.25,3.25,0,0,0-.22,1.55v9.35a2.84,2.84,0,0,0,.29,1.67,1.63,1.63,0,0,0,1.23.44H317v.4h-6v-.4h.51a1.45,1.45,0,0,0,1.27-.55,3.16,3.16,0,0,0,.25-1.56v-9.54l-5.51,12Z"/><path class="cls-1" d="M353,181.91h-5.51l-1,2.27a3,3,0,0,0-.34,1.25.72.72,0,0,0,.29.58,3,3,0,0,0,1.34.32v.38h-4.48v-.38a2.37,2.37,0,0,0,1.15-.43,6.25,6.25,0,0,0,1.19-2.05l5-11.8h.36L356,184a5.14,5.14,0,0,0,1.08,1.89,2.35,2.35,0,0,0,1.36.48v.38h-5.63v-.38A2.31,2.31,0,0,0,354,186a.67.67,0,0,0,.29-.58,4.7,4.7,0,0,0-.4-1.49Zm-.3-.77-2.42-5.79-2.46,5.79Z"/><path class="cls-1" d="M394.33,172.05v5H394a6.7,6.7,0,0,0-.7-2.26,3.41,3.41,0,0,0-1.39-1.35,3.9,3.9,0,0,0-1.87-.49,2.63,2.63,0,0,0-1.81.67,2,2,0,0,0-.7,1.54,1.72,1.72,0,0,0,.45,1.17,11.63,11.63,0,0,0,3.09,2.12,24.56,24.56,0,0,1,2.74,1.64,4.65,4.65,0,0,1,1.11,1.36,3.72,3.72,0,0,1-.87,4.45,4.49,4.49,0,0,1-3.22,1.17,6,6,0,0,1-1.15-.09,8.88,8.88,0,0,1-1.36-.39,6,6,0,0,0-1.29-.31.62.62,0,0,0-.43.14,1.4,1.4,0,0,0-.22.65H386v-4.91h.38a7.69,7.69,0,0,0,.74,2.32,3.51,3.51,0,0,0,1.41,1.27,4.31,4.31,0,0,0,2.07.5,3,3,0,0,0,2.09-.7,2.09,2.09,0,0,0,.74-1.64,2.32,2.32,0,0,0-.27-1.06,3.19,3.19,0,0,0-.9-1,25.14,25.14,0,0,0-2.24-1.36,23.79,23.79,0,0,1-2.6-1.64,5.2,5.2,0,0,1-1.17-1.34,3.57,3.57,0,0,1-.39-1.64,3.45,3.45,0,0,1,1.19-2.65,4.11,4.11,0,0,1,3-1.13,6.19,6.19,0,0,1,2.42.57,2.82,2.82,0,0,0,.81.27.63.63,0,0,0,.44-.17,1.34,1.34,0,0,0,.31-.67Z"/><path class="cls-1" d="M432.06,172.05v5h-.41a7,7,0,0,0-.65-2.26,3.66,3.66,0,0,0-1.41-1.35,3.87,3.87,0,0,0-1.87-.49,2.55,2.55,0,0,0-1.79.67,1.94,1.94,0,0,0-.71,1.54,1.8,1.8,0,0,0,.43,1.17,12.12,12.12,0,0,0,3.1,2.12,19,19,0,0,1,2.71,1.64,4.22,4.22,0,0,1,1.15,1.36,3.76,3.76,0,0,1-.87,4.45,4.55,4.55,0,0,1-3.23,1.17,6.13,6.13,0,0,1-1.16-.09,8.27,8.27,0,0,1-1.35-.39,6.12,6.12,0,0,0-1.29-.31.55.55,0,0,0-.42.14,1.3,1.3,0,0,0-.22.65h-.39v-4.91h.39a6.73,6.73,0,0,0,.73,2.32,3.62,3.62,0,0,0,1.4,1.27,4.43,4.43,0,0,0,2.1.5,3,3,0,0,0,2.08-.7,2.2,2.2,0,0,0,.75-1.64,2.26,2.26,0,0,0-.31-1.06,3.19,3.19,0,0,0-.87-1c-.31-.22-1-.66-2.23-1.36a25.24,25.24,0,0,1-2.61-1.64,4.26,4.26,0,0,1-1.17-1.34,3.46,3.46,0,0,1-.4-1.64,3.57,3.57,0,0,1,1.17-2.65,4.25,4.25,0,0,1,3-1.13,6,6,0,0,1,2.38.57,3.09,3.09,0,0,0,.83.27.68.68,0,0,0,.46-.17,1.15,1.15,0,0,0,.26-.67Z"/><path class="cls-1" d="M469.73,181.91h-5.52l-.95,2.27a3.75,3.75,0,0,0-.36,1.25.75.75,0,0,0,.32.58,3.08,3.08,0,0,0,1.33.32v.38h-4.48v-.38a2.38,2.38,0,0,0,1.17-.43,6.25,6.25,0,0,0,1.19-2.05l5-11.8h.37l5,11.91a5.27,5.27,0,0,0,1.09,1.89,2.27,2.27,0,0,0,1.35.48v.38h-5.61v-.38a2.3,2.3,0,0,0,1.16-.3.73.73,0,0,0,.27-.58,4.28,4.28,0,0,0-.41-1.49Zm-.3-.77L467,175.35l-2.47,5.79Z"/><path class="cls-1" d="M514.36,172.05l.37,4.51h-.37a6.12,6.12,0,0,0-1.43-2.51,4.46,4.46,0,0,0-3.26-1.24,4.58,4.58,0,0,0-4.13,2.17,7.76,7.76,0,0,0-1.17,4.36,8.48,8.48,0,0,0,.78,3.71,5.25,5.25,0,0,0,2.05,2.48,4.81,4.81,0,0,0,2.62.8,6.55,6.55,0,0,0,1.53-.2,6.66,6.66,0,0,0,1.41-.62V181.4a3.3,3.3,0,0,0-.19-1.42,1,1,0,0,0-.49-.52,3.17,3.17,0,0,0-1.19-.17v-.39h5.49v.39h-.23a1.18,1.18,0,0,0-1.14.55,3.32,3.32,0,0,0-.22,1.56v4.38a9.87,9.87,0,0,1-5,1.25,7.54,7.54,0,0,1-6.26-2.64,7.11,7.11,0,0,1-1.62-4.63,8,8,0,0,1,3.83-6.78,7.26,7.26,0,0,1,3.7-.93,7.39,7.39,0,0,1,1.41.14,13.75,13.75,0,0,1,1.8.56,3.32,3.32,0,0,0,.8.23.33.33,0,0,0,.31-.21c.11-.1.16-.34.18-.72Z"/><path class="cls-1" d="M547,173.18v5.64h3.14a1.81,1.81,0,0,0,2.24-2.07h.38v5h-.38a6.42,6.42,0,0,0-.29-1.33,1.59,1.59,0,0,0-.66-.59,3.12,3.12,0,0,0-1.29-.22H547v4.74a6.24,6.24,0,0,0,.07,1.14.85.85,0,0,0,.32.33,1.41,1.41,0,0,0,.78.14h2.43a7.35,7.35,0,0,0,1.74-.16,2.77,2.77,0,0,0,1-.69,8,8,0,0,0,1.33-2h.42l-1.22,3.62h-11v-.4h.51a1.93,1.93,0,0,0,.93-.25.9.9,0,0,0,.47-.49,4.91,4.91,0,0,0,.11-1.4v-9.32a2.93,2.93,0,0,0-.27-1.67,1.63,1.63,0,0,0-1.24-.43h-.51v-.37h11l.17,3.13h-.42a4.35,4.35,0,0,0-.49-1.55,1.74,1.74,0,0,0-.79-.66,6,6,0,0,0-1.49-.14Z"/><polygon class="cls-1" points="141.2 16.43 141.2 0 135.16 0 135.16 16.43 135.16 19.07 141.2 19.07 141.2 16.43"/><polygon class="cls-1" points="133.04 16.43 133.04 0 130.01 0 130.01 16.43 130.01 19.07 133.04 19.07 133.04 16.43"/><polygon class="cls-1" points="216.72 0 216.72 16.43 216.72 19.07 219.74 19.07 219.74 16.43 219.74 0 216.72 0"/><polygon class="cls-1" points="215.04 16.43 215.04 0 208.97 0 208.97 16.43 208.97 19.07 215.04 19.07 215.04 16.43"/></g></g></svg>